# xmcd
#
# Track frame offsets: 
#        150
#        18553
#        29930
#        43465
#        60487
#        79666
#
# Disc length: 1248 seconds
#
# Revision: 1
# Processed by: cddbd v1.5PL3 Copyright (c) Steve Scherf et al.
# Submitted via: ExactAudioCopy v0.90b4
#
DISCID=5004de06
DTITLE=A3 - Acoustic Power
DYEAR=2003
DGENRE=Dance
TTITLE0=Woke up this Morning
TTITLE1=Power in the Blood
TTITLE2=Disneyland is Burning (unreleased)
TTITLE3=U Don't Dans 2 Tekno Anymore
TTITLE4=Year Zero
TTITLE5=Mansion on the Hill
EXTD=
EXTT0=
EXTT1=
EXTT2=
EXTT3=
EXTT4=
EXTT5=
PLAYORDER=
